<svg xmlns="http://www.w3.org/2000/svg" width="700" class="diagram"><g transform="translate(-20.34765625,20) scale(0.75)"><g class="output"><g class="clusters"/><g class="edgePaths"><g class="edgePath" style="opacity: 1;"><path class="path" d="M245.27734375,36.796875L245.27734375,61.796875L245.27734375,86.796875" marker-end="url(https://app.supervise.ly/export/run#arrowhead104)" style="stroke: #333; fill:rgba(255,255,255,0); stroke-width: 1.5px;"/><defs><marker id="arrowhead104" viewBox="0 0 10 10" refX="9" refY="5" markerUnits="strokeWidth" markerWidth="8" markerHeight="6" orient="auto"><path d="M 0 0 L 10 5 L 0 10 z" style="stroke-width: 1; stroke-dasharray: 1, 0;"/></marker></defs></g><g class="edgePath" style="opacity: 1;"><path class="path" d="M245.27734375,123.59375L245.27734375,148.59375L245.27734375,173.59375" marker-end="url(https://app.supervise.ly/export/run#arrowhead105)" style="stroke: #333; fill:rgba(255,255,255,0); stroke-width: 1.5px;"/><defs><marker id="arrowhead105" viewBox="0 0 10 10" refX="9" refY="5" markerUnits="strokeWidth" markerWidth="8" markerHeight="6" orient="auto"><path d="M 0 0 L 10 5 L 0 10 z" style="stroke-width: 1; stroke-dasharray: 1, 0;"/></marker></defs></g><g class="edgePath" style="opacity: 1;"><path class="path" d="M245.27734375,210.390625L245.27734375,235.390625L245.27734375,260.390625" marker-end="url(https://app.supervise.ly/export/run#arrowhead106)" style="stroke: #333; fill:rgba(255,255,255,0); stroke-width: 1.5px;"/><defs><marker id="arrowhead106" viewBox="0 0 10 10" refX="9" refY="5" markerUnits="strokeWidth" markerWidth="8" markerHeight="6" orient="auto"><path d="M 0 0 L 10 5 L 0 10 z" style="stroke-width: 1; stroke-dasharray: 1, 0;"/></marker></defs></g><g class="edgePath" style="opacity: 1;"><path class="path" d="M259.76953125,281.65076918334427L465.0546875,322.1875L465.0546875,347.1875" marker-end="url(https://app.supervise.ly/export/run#arrowhead107)" style="stroke: #333; fill:rgba(255,255,255,0); stroke-width: 1.5px;"/><defs><marker id="arrowhead107" viewBox="0 0 10 10" refX="9" refY="5" markerUnits="strokeWidth" markerWidth="8" markerHeight="6" orient="auto"><path d="M 0 0 L 10 5 L 0 10 z" style="stroke-width: 1; stroke-dasharray: 1, 0;"/></marker></defs></g><g class="edgePath" style="opacity: 1;"><path class="path" d="M230.78515625,281.65076918334427L25.5,322.1875L25.5,365.5859375L25.5,408.984375L25.5,452.3828125L25.5,495.78125L25.5,539.1796875L25.5,582.578125L25.5,625.9765625L25.5,669.375L25.5,694.375" marker-end="url(https://app.supervise.ly/export/run#arrowhead108)" style="stroke: #333; fill:rgba(255,255,255,0); stroke-width: 1.5px;"/><defs><marker id="arrowhead108" viewBox="0 0 10 10" refX="9" refY="5" markerUnits="strokeWidth" markerWidth="8" markerHeight="6" orient="auto"><path d="M 0 0 L 10 5 L 0 10 z" style="stroke-width: 1; stroke-dasharray: 1, 0;"/></marker></defs></g><g class="edgePath" style="opacity: 1;"><path class="path" d="M490.5078125,368.8864069065126L799.7421875,408.984375L799.7421875,433.984375" marker-end="url(https://app.supervise.ly/export/run#arrowhead109)" style="stroke: #333; fill:rgba(255,255,255,0); stroke-width: 1.5px;"/><defs><marker id="arrowhead109" viewBox="0 0 10 10" refX="9" refY="5" markerUnits="strokeWidth" markerWidth="8" markerHeight="6" orient="auto"><path d="M 0 0 L 10 5 L 0 10 z" style="stroke-width: 1; stroke-dasharray: 1, 0;"/></marker></defs></g><g class="edgePath" style="opacity: 1;"><path class="path" d="M799.7421875,470.78125L799.7421875,495.78125L799.7421875,520.78125" marker-end="url(https://app.supervise.ly/export/run#arrowhead110)" style="stroke: #333; fill:rgba(255,255,255,0); stroke-width: 1.5px;"/><defs><marker id="arrowhead110" viewBox="0 0 10 10" refX="9" refY="5" markerUnits="strokeWidth" markerWidth="8" markerHeight="6" orient="auto"><path d="M 0 0 L 10 5 L 0 10 z" style="stroke-width: 1; stroke-dasharray: 1, 0;"/></marker></defs></g><g class="edgePath" style="opacity: 1;"><path class="path" d="M799.7421875,557.578125L799.7421875,582.578125L799.7421875,607.578125" marker-end="url(https://app.supervise.ly/export/run#arrowhead111)" style="stroke: #333; fill:rgba(255,255,255,0); stroke-width: 1.5px;"/><defs><marker id="arrowhead111" viewBox="0 0 10 10" refX="9" refY="5" markerUnits="strokeWidth" markerWidth="8" markerHeight="6" orient="auto"><path d="M 0 0 L 10 5 L 0 10 z" style="stroke-width: 1; stroke-dasharray: 1, 0;"/></marker></defs></g><g class="edgePath" style="opacity: 1;"><path class="path" d="M799.7421875,644.375L799.7421875,669.375L799.7421875,694.375" marker-end="url(https://app.supervise.ly/export/run#arrowhead112)" style="stroke: #333; fill:rgba(255,255,255,0); stroke-width: 1.5px;"/><defs><marker id="arrowhead112" viewBox="0 0 10 10" refX="9" refY="5" markerUnits="strokeWidth" markerWidth="8" markerHeight="6" orient="auto"><path d="M 0 0 L 10 5 L 0 10 z" style="stroke-width: 1; stroke-dasharray: 1, 0;"/></marker></defs></g><g class="edgePath" style="opacity: 1;"><path class="path" d="M465.0546875,383.984375L465.0546875,408.984375L465.0546875,433.984375" marker-end="url(https://app.supervise.ly/export/run#arrowhead113)" style="stroke: #333; fill:rgba(255,255,255,0); stroke-width: 1.5px;"/><defs><marker id="arrowhead113" viewBox="0 0 10 10" refX="9" refY="5" markerUnits="strokeWidth" markerWidth="8" markerHeight="6" orient="auto"><path d="M 0 0 L 10 5 L 0 10 z" style="stroke-width: 1; stroke-dasharray: 1, 0;"/></marker></defs></g><g class="edgePath" style="opacity: 1;"><path class="path" d="M465.0546875,470.78125L465.0546875,495.78125L465.0546875,520.78125" marker-end="url(https://app.supervise.ly/export/run#arrowhead114)" style="stroke: #333; fill:rgba(255,255,255,0); stroke-width: 1.5px;"/><defs><marker id="arrowhead114" viewBox="0 0 10 10" refX="9" refY="5" markerUnits="strokeWidth" markerWidth="8" markerHeight="6" orient="auto"><path d="M 0 0 L 10 5 L 0 10 z" style="stroke-width: 1; stroke-dasharray: 1, 0;"/></marker></defs></g><g class="edgePath" style="opacity: 1;"><path class="path" d="M465.0546875,557.578125L465.0546875,582.578125L465.0546875,607.578125" marker-end="url(https://app.supervise.ly/export/run#arrowhead115)" style="stroke: #333; fill:rgba(255,255,255,0); stroke-width: 1.5px;"/><defs><marker id="arrowhead115" viewBox="0 0 10 10" refX="9" refY="5" markerUnits="strokeWidth" markerWidth="8" markerHeight="6" orient="auto"><path d="M 0 0 L 10 5 L 0 10 z" style="stroke-width: 1; stroke-dasharray: 1, 0;"/></marker></defs></g><g class="edgePath" style="opacity: 1;"><path class="path" d="M465.0546875,644.375L465.0546875,669.375L465.0546875,694.375" marker-end="url(https://app.supervise.ly/export/run#arrowhead116)" style="stroke: #333; fill:rgba(255,255,255,0); stroke-width: 1.5px;"/><defs><marker id="arrowhead116" viewBox="0 0 10 10" refX="9" refY="5" markerUnits="strokeWidth" markerWidth="8" markerHeight="6" orient="auto"><path d="M 0 0 L 10 5 L 0 10 z" style="stroke-width: 1; stroke-dasharray: 1, 0;"/></marker></defs></g><g class="edgePath" style="opacity: 1;"><path class="path" d="M490.5078125,372.66545429225914L621.0859375,408.984375L621.0859375,433.984375" marker-end="url(https://app.supervise.ly/export/run#arrowhead117)" style="stroke: #333; fill:rgba(255,255,255,0); stroke-width: 1.5px;"/><defs><marker id="arrowhead117" viewBox="0 0 10 10" refX="9" refY="5" markerUnits="strokeWidth" markerWidth="8" markerHeight="6" orient="auto"><path d="M 0 0 L 10 5 L 0 10 z" style="stroke-width: 1; stroke-dasharray: 1, 0;"/></marker></defs></g><g class="edgePath" style="opacity: 1;"><path class="path" d="M621.0859375,470.78125L621.0859375,495.78125L621.0859375,520.78125" marker-end="url(https://app.supervise.ly/export/run#arrowhead118)" style="stroke: #333; fill:rgba(255,255,255,0); stroke-width: 1.5px;"/><defs><marker id="arrowhead118" viewBox="0 0 10 10" refX="9" refY="5" markerUnits="strokeWidth" markerWidth="8" markerHeight="6" orient="auto"><path d="M 0 0 L 10 5 L 0 10 z" style="stroke-width: 1; stroke-dasharray: 1, 0;"/></marker></defs></g><g class="edgePath" style="opacity: 1;"><path class="path" d="M621.0859375,557.578125L621.0859375,582.578125L621.0859375,607.578125" marker-end="url(https://app.supervise.ly/export/run#arrowhead119)" style="stroke: #333; fill:rgba(255,255,255,0); stroke-width: 1.5px;"/><defs><marker id="arrowhead119" viewBox="0 0 10 10" refX="9" refY="5" markerUnits="strokeWidth" markerWidth="8" markerHeight="6" orient="auto"><path d="M 0 0 L 10 5 L 0 10 z" style="stroke-width: 1; stroke-dasharray: 1, 0;"/></marker></defs></g><g class="edgePath" style="opacity: 1;"><path class="path" d="M621.0859375,644.375L621.0859375,669.375L621.0859375,694.375" marker-end="url(https://app.supervise.ly/export/run#arrowhead120)" style="stroke: #333; fill:rgba(255,255,255,0); stroke-width: 1.5px;"/><defs><marker id="arrowhead120" viewBox="0 0 10 10" refX="9" refY="5" markerUnits="strokeWidth" markerWidth="8" markerHeight="6" orient="auto"><path d="M 0 0 L 10 5 L 0 10 z" style="stroke-width: 1; stroke-dasharray: 1, 0;"/></marker></defs></g><g class="edgePath" style="opacity: 1;"><path class="path" d="M490.5078125,367.8336103670556L956.5078125,408.984375L956.5078125,452.3828125L956.5078125,495.78125L956.5078125,539.1796875L956.5078125,582.578125L956.5078125,607.578125" marker-end="url(https://app.supervise.ly/export/run#arrowhead121)" style="stroke: #333; fill:rgba(255,255,255,0); stroke-width: 1.5px;"/><defs><marker id="arrowhead121" viewBox="0 0 10 10" refX="9" refY="5" markerUnits="strokeWidth" markerWidth="8" markerHeight="6" orient="auto"><path d="M 0 0 L 10 5 L 0 10 z" style="stroke-width: 1; stroke-dasharray: 1, 0;"/></marker></defs></g><g class="edgePath" style="opacity: 1;"><path class="path" d="M956.5078125,644.375L956.5078125,669.375L956.5078125,694.375" marker-end="url(https://app.supervise.ly/export/run#arrowhead122)" style="stroke: #333; fill:rgba(255,255,255,0); stroke-width: 1.5px;"/><defs><marker id="arrowhead122" viewBox="0 0 10 10" refX="9" refY="5" markerUnits="strokeWidth" markerWidth="8" markerHeight="6" orient="auto"><path d="M 0 0 L 10 5 L 0 10 z" style="stroke-width: 1; stroke-dasharray: 1, 0;"/></marker></defs></g><g class="edgePath" style="opacity: 1;"><path class="path" d="M439.6015625,372.94857598026454L315.0234375,408.984375L315.0234375,433.984375" marker-end="url(https://app.supervise.ly/export/run#arrowhead123)" style="stroke: #333; fill:rgba(255,255,255,0); stroke-width: 1.5px;"/><defs><marker id="arrowhead123" viewBox="0 0 10 10" refX="9" refY="5" markerUnits="strokeWidth" markerWidth="8" markerHeight="6" orient="auto"><path d="M 0 0 L 10 5 L 0 10 z" style="stroke-width: 1; stroke-dasharray: 1, 0;"/></marker></defs></g><g class="edgePath" style="opacity: 1;"><path class="path" d="M315.0234375,470.78125L315.0234375,495.78125L315.0234375,520.78125" marker-end="url(https://app.supervise.ly/export/run#arrowhead124)" style="stroke: #333; fill:rgba(255,255,255,0); stroke-width: 1.5px;"/><defs><marker id="arrowhead124" viewBox="0 0 10 10" refX="9" refY="5" markerUnits="strokeWidth" markerWidth="8" markerHeight="6" orient="auto"><path d="M 0 0 L 10 5 L 0 10 z" style="stroke-width: 1; stroke-dasharray: 1, 0;"/></marker></defs></g><g class="edgePath" style="opacity: 1;"><path class="path" d="M315.0234375,557.578125L315.0234375,582.578125L315.0234375,607.578125" marker-end="url(https://app.supervise.ly/export/run#arrowhead125)" style="stroke: #333; fill:rgba(255,255,255,0); stroke-width: 1.5px;"/><defs><marker id="arrowhead125" viewBox="0 0 10 10" refX="9" refY="5" markerUnits="strokeWidth" markerWidth="8" markerHeight="6" orient="auto"><path d="M 0 0 L 10 5 L 0 10 z" style="stroke-width: 1; stroke-dasharray: 1, 0;"/></marker></defs></g><g class="edgePath" style="opacity: 1;"><path class="path" d="M315.0234375,644.375L315.0234375,669.375L315.0234375,694.375" marker-end="url(https://app.supervise.ly/export/run#arrowhead126)" style="stroke: #333; fill:rgba(255,255,255,0); stroke-width: 1.5px;"/><defs><marker id="arrowhead126" viewBox="0 0 10 10" refX="9" refY="5" markerUnits="strokeWidth" markerWidth="8" markerHeight="6" orient="auto"><path d="M 0 0 L 10 5 L 0 10 z" style="stroke-width: 1; stroke-dasharray: 1, 0;"/></marker></defs></g><g class="edgePath" style="opacity: 1;"><path class="path" d="M439.6015625,369.3237007805065L169.5234375,408.984375L169.5234375,433.984375" marker-end="url(https://app.supervise.ly/export/run#arrowhead127)" style="stroke: #333; fill:rgba(255,255,255,0); stroke-width: 1.5px;"/><defs><marker id="arrowhead127" viewBox="0 0 10 10" refX="9" refY="5" markerUnits="strokeWidth" markerWidth="8" markerHeight="6" orient="auto"><path d="M 0 0 L 10 5 L 0 10 z" style="stroke-width: 1; stroke-dasharray: 1, 0;"/></marker></defs></g><g class="edgePath" style="opacity: 1;"><path class="path" d="M169.5234375,470.78125L169.5234375,495.78125L169.5234375,520.78125" marker-end="url(https://app.supervise.ly/export/run#arrowhead128)" style="stroke: #333; fill:rgba(255,255,255,0); stroke-width: 1.5px;"/><defs><marker id="arrowhead128" viewBox="0 0 10 10" refX="9" refY="5" markerUnits="strokeWidth" markerWidth="8" markerHeight="6" orient="auto"><path d="M 0 0 L 10 5 L 0 10 z" style="stroke-width: 1; stroke-dasharray: 1, 0;"/></marker></defs></g><g class="edgePath" style="opacity: 1;"><path class="path" d="M169.5234375,557.578125L169.5234375,582.578125L169.5234375,607.578125" marker-end="url(https://app.supervise.ly/export/run#arrowhead129)" style="stroke: #333; fill:rgba(255,255,255,0); stroke-width: 1.5px;"/><defs><marker id="arrowhead129" viewBox="0 0 10 10" refX="9" refY="5" markerUnits="strokeWidth" markerWidth="8" markerHeight="6" orient="auto"><path d="M 0 0 L 10 5 L 0 10 z" style="stroke-width: 1; stroke-dasharray: 1, 0;"/></marker></defs></g><g class="edgePath" style="opacity: 1;"><path class="path" d="M169.5234375,644.375L169.5234375,669.375L169.5234375,694.375" marker-end="url(https://app.supervise.ly/export/run#arrowhead130)" style="stroke: #333; fill:rgba(255,255,255,0); stroke-width: 1.5px;"/><defs><marker id="arrowhead130" viewBox="0 0 10 10" refX="9" refY="5" markerUnits="strokeWidth" markerWidth="8" markerHeight="6" orient="auto"><path d="M 0 0 L 10 5 L 0 10 z" style="stroke-width: 1; stroke-dasharray: 1, 0;"/></marker></defs></g><g class="edgePath" style="opacity: 1;"><path class="path" d="M25.5,731.171875L25.5,756.171875L365.328125,796.6284711804291" marker-end="url(https://app.supervise.ly/export/run#arrowhead131)" style="stroke: #333; fill:rgba(255,255,255,0); stroke-width: 1.5px;"/><defs><marker id="arrowhead131" viewBox="0 0 10 10" refX="9" refY="5" markerUnits="strokeWidth" markerWidth="8" markerHeight="6" orient="auto"><path d="M 0 0 L 10 5 L 0 10 z" style="stroke-width: 1; stroke-dasharray: 1, 0;"/></marker></defs></g><g class="edgePath" style="opacity: 1;"><path class="path" d="M439.6015625,368.50009709469487L86,408.984375L86,452.3828125L86,495.78125L86,539.1796875L86,582.578125L86,625.9765625L86,669.375L86,712.7734375L86,756.171875L365.328125,796.0430812691112" marker-end="url(https://app.supervise.ly/export/run#arrowhead132)" style="stroke: #333; fill:rgba(255,255,255,0); stroke-width: 1.5px;"/><defs><marker id="arrowhead132" viewBox="0 0 10 10" refX="9" refY="5" markerUnits="strokeWidth" markerWidth="8" markerHeight="6" orient="auto"><path d="M 0 0 L 10 5 L 0 10 z" style="stroke-width: 1; stroke-dasharray: 1, 0;"/></marker></defs></g><g class="edgePath" style="opacity: 1;"><path class="path" d="M169.5234375,731.171875L169.5234375,756.171875L365.328125,794.7070921424396" marker-end="url(https://app.supervise.ly/export/run#arrowhead133)" style="stroke: #333; fill:rgba(255,255,255,0); stroke-width: 1.5px;"/><defs><marker id="arrowhead133" viewBox="0 0 10 10" refX="9" refY="5" markerUnits="strokeWidth" markerWidth="8" markerHeight="6" orient="auto"><path d="M 0 0 L 10 5 L 0 10 z" style="stroke-width: 1; stroke-dasharray: 1, 0;"/></marker></defs></g><g class="edgePath" style="opacity: 1;"><path class="path" d="M315.0234375,731.171875L315.0234375,756.171875L365.328125,785.274409790929" marker-end="url(https://app.supervise.ly/export/run#arrowhead134)" style="stroke: #333; fill:rgba(255,255,255,0); stroke-width: 1.5px;"/><defs><marker id="arrowhead134" viewBox="0 0 10 10" refX="9" refY="5" markerUnits="strokeWidth" markerWidth="8" markerHeight="6" orient="auto"><path d="M 0 0 L 10 5 L 0 10 z" style="stroke-width: 1; stroke-dasharray: 1, 0;"/></marker></defs></g><g class="edgePath" style="opacity: 1;"><path class="path" d="M465.0546875,731.171875L465.0546875,756.171875L414.75,785.274409790929" marker-end="url(https://app.supervise.ly/export/run#arrowhead135)" style="stroke: #333; fill:rgba(255,255,255,0); stroke-width: 1.5px;"/><defs><marker id="arrowhead135" viewBox="0 0 10 10" refX="9" refY="5" markerUnits="strokeWidth" markerWidth="8" markerHeight="6" orient="auto"><path d="M 0 0 L 10 5 L 0 10 z" style="stroke-width: 1; stroke-dasharray: 1, 0;"/></marker></defs></g><g class="edgePath" style="opacity: 1;"><path class="path" d="M621.0859375,731.171875L621.0859375,756.171875L414.75,794.9287605350139" marker-end="url(https://app.supervise.ly/export/run#arrowhead136)" style="stroke: #333; fill:rgba(255,255,255,0); stroke-width: 1.5px;"/><defs><marker id="arrowhead136" viewBox="0 0 10 10" refX="9" refY="5" markerUnits="strokeWidth" markerWidth="8" markerHeight="6" orient="auto"><path d="M 0 0 L 10 5 L 0 10 z" style="stroke-width: 1; stroke-dasharray: 1, 0;"/></marker></defs></g><g class="edgePath" style="opacity: 1;"><path class="path" d="M799.7421875,731.171875L799.7421875,756.171875L414.75,796.9527682070192" marker-end="url(https://app.supervise.ly/export/run#arrowhead137)" style="stroke: #333; fill:rgba(255,255,255,0); stroke-width: 1.5px;"/><defs><marker id="arrowhead137" viewBox="0 0 10 10" refX="9" refY="5" markerUnits="strokeWidth" markerWidth="8" markerHeight="6" orient="auto"><path d="M 0 0 L 10 5 L 0 10 z" style="stroke-width: 1; stroke-dasharray: 1, 0;"/></marker></defs></g><g class="edgePath" style="opacity: 1;"><path class="path" d="M956.5078125,731.171875L956.5078125,756.171875L414.75,797.677152327157" marker-end="url(https://app.supervise.ly/export/run#arrowhead138)" style="stroke: #333; fill:rgba(255,255,255,0); stroke-width: 1.5px;"/><defs><marker id="arrowhead138" viewBox="0 0 10 10" refX="9" refY="5" markerUnits="strokeWidth" markerWidth="8" markerHeight="6" orient="auto"><path d="M 0 0 L 10 5 L 0 10 z" style="stroke-width: 1; stroke-dasharray: 1, 0;"/></marker></defs></g><g class="edgePath" style="opacity: 1;"><path class="path" d="M390.0390625,817.96875L390.0390625,842.96875L390.0390625,867.96875" marker-end="url(https://app.supervise.ly/export/run#arrowhead139)" style="stroke: #333; fill:rgba(255,255,255,0); stroke-width: 1.5px;"/><defs><marker id="arrowhead139" viewBox="0 0 10 10" refX="9" refY="5" markerUnits="strokeWidth" markerWidth="8" markerHeight="6" orient="auto"><path d="M 0 0 L 10 5 L 0 10 z" style="stroke-width: 1; stroke-dasharray: 1, 0;"/></marker></defs></g></g><g class="edgeLabels"><g class="edgeLabel" transform="" style="opacity: 1;"><g transform="translate(0,0)" class="label"><text><tspan xml:space="preserve" dy="1em" x="1"/></text></g></g><g class="edgeLabel" transform="" style="opacity: 1;"><g transform="translate(0,0)" class="label"><text><tspan xml:space="preserve" dy="1em" x="1"/></text></g></g><g class="edgeLabel" transform="" style="opacity: 1;"><g transform="translate(0,0)" class="label"><text><tspan xml:space="preserve" dy="1em" x="1"/></text></g></g><g class="edgeLabel" transform="" style="opacity: 1;"><g transform="translate(0,0)" class="label"><text><tspan xml:space="preserve" dy="1em" x="1"/></text></g></g><g class="edgeLabel" transform="" style="opacity: 1;"><g transform="translate(0,0)" class="label"><text><tspan xml:space="preserve" dy="1em" x="1"/></text></g></g><g class="edgeLabel" transform="" style="opacity: 1;"><g transform="translate(0,0)" class="label"><text><tspan xml:space="preserve" dy="1em" x="1"/></text></g></g><g class="edgeLabel" transform="" style="opacity: 1;"><g transform="translate(0,0)" class="label"><text><tspan xml:space="preserve" dy="1em" x="1"/></text></g></g><g class="edgeLabel" transform="" style="opacity: 1;"><g transform="translate(0,0)" class="label"><text><tspan xml:space="preserve" dy="1em" x="1"/></text></g></g><g class="edgeLabel" transform="" style="opacity: 1;"><g transform="translate(0,0)" class="label"><text><tspan xml:space="preserve" dy="1em" x="1"/></text></g></g><g class="edgeLabel" transform="" style="opacity: 1;"><g transform="translate(0,0)" class="label"><text><tspan xml:space="preserve" dy="1em" x="1"/></text></g></g><g class="edgeLabel" transform="" style="opacity: 1;"><g transform="translate(0,0)" class="label"><text><tspan xml:space="preserve" dy="1em" x="1"/></text></g></g><g class="edgeLabel" transform="" style="opacity: 1;"><g transform="translate(0,0)" class="label"><text><tspan xml:space="preserve" dy="1em" x="1"/></text></g></g><g class="edgeLabel" transform="" style="opacity: 1;"><g transform="translate(0,0)" class="label"><text><tspan xml:space="preserve" dy="1em" x="1"/></text></g></g><g class="edgeLabel" transform="" style="opacity: 1;"><g transform="translate(0,0)" class="label"><text><tspan xml:space="preserve" dy="1em" x="1"/></text></g></g><g class="edgeLabel" transform="" style="opacity: 1;"><g transform="translate(0,0)" class="label"><text><tspan xml:space="preserve" dy="1em" x="1"/></text></g></g><g class="edgeLabel" transform="" style="opacity: 1;"><g transform="translate(0,0)" class="label"><text><tspan xml:space="preserve" dy="1em" x="1"/></text></g></g><g class="edgeLabel" transform="" style="opacity: 1;"><g transform="translate(0,0)" class="label"><text><tspan xml:space="preserve" dy="1em" x="1"/></text></g></g><g class="edgeLabel" transform="" style="opacity: 1;"><g transform="translate(0,0)" class="label"><text><tspan xml:space="preserve" dy="1em" x="1"/></text></g></g><g class="edgeLabel" transform="" style="opacity: 1;"><g transform="translate(0,0)" class="label"><text><tspan xml:space="preserve" dy="1em" x="1"/></text></g></g><g class="edgeLabel" transform="" style="opacity: 1;"><g transform="translate(0,0)" class="label"><text><tspan xml:space="preserve" dy="1em" x="1"/></text></g></g><g class="edgeLabel" transform="" style="opacity: 1;"><g transform="translate(0,0)" class="label"><text><tspan xml:space="preserve" dy="1em" x="1"/></text></g></g><g class="edgeLabel" transform="" style="opacity: 1;"><g transform="translate(0,0)" class="label"><text><tspan xml:space="preserve" dy="1em" x="1"/></text></g></g><g class="edgeLabel" transform="" style="opacity: 1;"><g transform="translate(0,0)" class="label"><text><tspan xml:space="preserve" dy="1em" x="1"/></text></g></g><g class="edgeLabel" transform="" style="opacity: 1;"><g transform="translate(0,0)" class="label"><text><tspan xml:space="preserve" dy="1em" x="1"/></text></g></g><g class="edgeLabel" transform="" style="opacity: 1;"><g transform="translate(0,0)" class="label"><text><tspan xml:space="preserve" dy="1em" x="1"/></text></g></g><g class="edgeLabel" transform="" style="opacity: 1;"><g transform="translate(0,0)" class="label"><text><tspan xml:space="preserve" dy="1em" x="1"/></text></g></g><g class="edgeLabel" transform="" style="opacity: 1;"><g transform="translate(0,0)" class="label"><text><tspan xml:space="preserve" dy="1em" x="1"/></text></g></g><g class="edgeLabel" transform="" style="opacity: 1;"><g transform="translate(0,0)" class="label"><text><tspan xml:space="preserve" dy="1em" x="1"/></text></g></g><g class="edgeLabel" transform="" style="opacity: 1;"><g transform="translate(0,0)" class="label"><text><tspan xml:space="preserve" dy="1em" x="1"/></text></g></g><g class="edgeLabel" transform="" style="opacity: 1;"><g transform="translate(0,0)" class="label"><text><tspan xml:space="preserve" dy="1em" x="1"/></text></g></g><g class="edgeLabel" transform="" style="opacity: 1;"><g transform="translate(0,0)" class="label"><text><tspan xml:space="preserve" dy="1em" x="1"/></text></g></g><g class="edgeLabel" transform="" style="opacity: 1;"><g transform="translate(0,0)" class="label"><text><tspan xml:space="preserve" dy="1em" x="1"/></text></g></g><g class="edgeLabel" transform="" style="opacity: 1;"><g transform="translate(0,0)" class="label"><text><tspan xml:space="preserve" dy="1em" x="1"/></text></g></g><g class="edgeLabel" transform="" style="opacity: 1;"><g transform="translate(0,0)" class="label"><text><tspan xml:space="preserve" dy="1em" x="1"/></text></g></g><g class="edgeLabel" transform="" style="opacity: 1;"><g transform="translate(0,0)" class="label"><text><tspan xml:space="preserve" dy="1em" x="1"/></text></g></g><g class="edgeLabel" transform="" style="opacity: 1;"><g transform="translate(0,0)" class="label"><text><tspan xml:space="preserve" dy="1em" x="1"/></text></g></g></g><g class="nodes"><g class="node layer" transform="translate(245.27734375,105.1953125)" style="opacity: 1;"><rect rx="5" ry="5" x="-24.0390625" y="-18.3984375" width="48.078125" height="36.796875" style="stroke: #333;fill: #ccccff"/><g class="label" transform="translate(0,0)"><g transform="translate(-14.0390625,-8.3984375)"><text><tspan xml:space="preserve" dy="1em" x="1">data</tspan></text></g></g></g><g class="node" transform="translate(245.27734375,18.3984375)" style="opacity: 1;"><rect rx="5" ry="5" x="-44.2421875" y="-18.3984375" width="88.484375" height="36.796875" style="stroke: #333;fill: #b9e1ff"/><g class="label" transform="translate(0,0)"><g transform="translate(-34.2421875,-8.3984375)"><text><tspan xml:space="preserve" dy="1em" x="1">Monobot/*</tspan></text></g></g></g><g class="node" transform="translate(245.27734375,191.9921875)" style="opacity: 1;"><rect rx="5" ry="5" x="-27.96875" y="-18.3984375" width="55.9375" height="36.796875" style="stroke: #333;fill: #b9e1ff"/><g class="label" transform="translate(0,0)"><g transform="translate(-17.96875,-8.3984375)"><text><tspan xml:space="preserve" dy="1em" x="1">$data</tspan></text></g></g></g><g class="node layer" transform="translate(245.27734375,278.7890625)" style="opacity: 1;"><rect rx="5" ry="5" x="-14.4921875" y="-18.3984375" width="28.984375" height="36.796875" style="stroke: #333;fill: #ccccff"/><g class="label" transform="translate(0,0)"><g transform="translate(-4.4921875,-8.3984375)"><text><tspan xml:space="preserve" dy="1em" x="1">if</tspan></text></g></g></g><g class="node" style="opacity: 1;" transform="translate(465.0546875,365.5859375)"><rect rx="5" ry="5" x="-25.453125" y="-18.3984375" width="50.90625" height="36.796875" style="stroke: #333;fill: #b9e1ff"/><g class="label" transform="translate(0,0)"><g transform="translate(-15.453125,-8.3984375)"><text><tspan xml:space="preserve" dy="1em" x="1">$pos</tspan></text></g></g></g><g class="node" transform="translate(25.5,712.7734375)" style="opacity: 1;"><rect rx="5" ry="5" x="-25.5" y="-18.3984375" width="51" height="36.796875" style="stroke: #333;fill: #b9e1ff"/><g class="label" transform="translate(0,0)"><g transform="translate(-15.5,-8.3984375)"><text><tspan xml:space="preserve" dy="1em" x="1">$neg</tspan></text></g></g></g><g class="node layer" transform="translate(799.7421875,452.3828125)" style="opacity: 1;"><rect rx="5" ry="5" x="-34.8984375" y="-18.3984375" width="69.796875" height="36.796875" style="stroke: #333;fill: #ccccff"/><g class="label" transform="translate(0,0)"><g transform="translate(-24.8984375,-8.3984375)"><text><tspan xml:space="preserve" dy="1em" x="1">multiply</tspan></text></g></g></g><g class="node" style="opacity: 1;" transform="translate(799.7421875,539.1796875)"><rect rx="5" ry="5" x="-49.6015625" y="-18.3984375" width="99.203125" height="36.796875" style="stroke: #333;fill: #b9e1ff"/><g class="label" transform="translate(0,0)"><g transform="translate(-39.6015625,-8.3984375)"><text><tspan xml:space="preserve" dy="1em" x="1">$sample*3.2</tspan></text></g></g></g><g class="node layer" transform="translate(799.7421875,625.9765625)" style="opacity: 1;"><rect rx="5" ry="5" x="-71.75" y="-18.3984375" width="143.5" height="36.796875" style="stroke: #333;fill: #ccccff"/><g class="label" transform="translate(0,0)"><g transform="translate(-61.75,-8.3984375)"><text><tspan xml:space="preserve" dy="1em" x="1">contrast_brightness</tspan></text></g></g></g><g class="node" style="opacity: 1;" transform="translate(799.7421875,712.7734375)"><rect rx="5" ry="5" x="-75.6796875" y="-18.3984375" width="151.359375" height="36.796875" style="stroke: #333;fill: #b9e1ff"/><g class="label" transform="translate(0,0)"><g transform="translate(-65.6796875,-8.3984375)"><text><tspan xml:space="preserve" dy="1em" x="1">$contrast_brightness</tspan></text></g></g></g><g class="node layer" transform="translate(465.0546875,452.3828125)" style="opacity: 1;"><rect rx="5" ry="5" x="-19.671875" y="-18.3984375" width="39.34375" height="36.796875" style="stroke: #333;fill: #ccccff"/><g class="label" transform="translate(0,0)"><g transform="translate(-9.671875,-8.3984375)"><text><tspan xml:space="preserve" dy="1em" x="1">flip</tspan></text></g></g></g><g class="node" style="opacity: 1;" transform="translate(465.0546875,539.1796875)"><rect rx="5" ry="5" x="-38.6796875" y="-18.3984375" width="77.359375" height="36.796875" style="stroke: #333;fill: #b9e1ff"/><g class="label" transform="translate(0,0)"><g transform="translate(-28.6796875,-8.3984375)"><text><tspan xml:space="preserve" dy="1em" x="1">$flip_vert</tspan></text></g></g></g><g class="node layer" transform="translate(465.0546875,625.9765625)" style="opacity: 1;"><rect rx="5" ry="5" x="-20.4921875" y="-18.3984375" width="40.984375" height="36.796875" style="stroke: #333;fill: #ccccff"/><g class="label" transform="translate(0,0)"><g transform="translate(-10.4921875,-8.3984375)"><text><tspan xml:space="preserve" dy="1em" x="1">tag</tspan></text></g></g></g><g class="node" style="opacity: 1;" transform="translate(465.0546875,712.7734375)"><rect rx="5" ry="5" x="-53.0546875" y="-18.3984375" width="106.109375" height="36.796875" style="stroke: #333;fill: #b9e1ff"/><g class="label" transform="translate(0,0)"><g transform="translate(-43.0546875,-8.3984375)"><text><tspan xml:space="preserve" dy="1em" x="1">$tag&amp;flip_vert</tspan></text></g></g></g><g class="node layer" transform="translate(621.0859375,452.3828125)" style="opacity: 1;"><rect rx="5" ry="5" x="-19.671875" y="-18.3984375" width="39.34375" height="36.796875" style="stroke: #333;fill: #ccccff"/><g class="label" transform="translate(0,0)"><g transform="translate(-9.671875,-8.3984375)"><text><tspan xml:space="preserve" dy="1em" x="1">flip</tspan></text></g></g></g><g class="node" style="opacity: 1;" transform="translate(621.0859375,539.1796875)"><rect rx="5" ry="5" x="-38.6015625" y="-18.3984375" width="77.203125" height="36.796875" style="stroke: #333;fill: #b9e1ff"/><g class="label" transform="translate(0,0)"><g transform="translate(-28.6015625,-8.3984375)"><text><tspan xml:space="preserve" dy="1em" x="1">$flip_hori</tspan></text></g></g></g><g class="node layer" transform="translate(621.0859375,625.9765625)" style="opacity: 1;"><rect rx="5" ry="5" x="-20.4921875" y="-18.3984375" width="40.984375" height="36.796875" style="stroke: #333;fill: #ccccff"/><g class="label" transform="translate(0,0)"><g transform="translate(-10.4921875,-8.3984375)"><text><tspan xml:space="preserve" dy="1em" x="1">tag</tspan></text></g></g></g><g class="node" style="opacity: 1;" transform="translate(621.0859375,712.7734375)"><rect rx="5" ry="5" x="-52.9765625" y="-18.3984375" width="105.953125" height="36.796875" style="stroke: #333;fill: #b9e1ff"/><g class="label" transform="translate(0,0)"><g transform="translate(-42.9765625,-8.3984375)"><text><tspan xml:space="preserve" dy="1em" x="1">$tag&amp;flip_hori</tspan></text></g></g></g><g class="node layer" transform="translate(956.5078125,625.9765625)" style="opacity: 1;"><rect rx="5" ry="5" x="-27.15625" y="-18.3984375" width="54.3125" height="36.796875" style="stroke: #333;fill: #ccccff"/><g class="label" transform="translate(0,0)"><g transform="translate(-17.15625,-8.3984375)"><text><tspan xml:space="preserve" dy="1em" x="1">noise</tspan></text></g></g></g><g class="node" style="opacity: 1;" transform="translate(956.5078125,712.7734375)"><rect rx="5" ry="5" x="-31.0859375" y="-18.3984375" width="62.171875" height="36.796875" style="stroke: #333;fill: #b9e1ff"/><g class="label" transform="translate(0,0)"><g transform="translate(-21.0859375,-8.3984375)"><text><tspan xml:space="preserve" dy="1em" x="1">$noise</tspan></text></g></g></g><g class="node layer" transform="translate(315.0234375,452.3828125)" style="opacity: 1;"><rect rx="5" ry="5" x="-28.671875" y="-18.3984375" width="57.34375" height="36.796875" style="stroke: #333;fill: #ccccff"/><g class="label" transform="translate(0,0)"><g transform="translate(-18.671875,-8.3984375)"><text><tspan xml:space="preserve" dy="1em" x="1">rotate</tspan></text></g></g></g><g class="node" style="opacity: 1;" transform="translate(315.0234375,539.1796875)"><rect rx="5" ry="5" x="-32.6015625" y="-18.3984375" width="65.203125" height="36.796875" style="stroke: #333;fill: #b9e1ff"/><g class="label" transform="translate(0,0)"><g transform="translate(-22.6015625,-8.3984375)"><text><tspan xml:space="preserve" dy="1em" x="1">$rotate</tspan></text></g></g></g><g class="node layer" transform="translate(315.0234375,625.9765625)" style="opacity: 1;"><rect rx="5" ry="5" x="-20.4921875" y="-18.3984375" width="40.984375" height="36.796875" style="stroke: #333;fill: #ccccff"/><g class="label" transform="translate(0,0)"><g transform="translate(-10.4921875,-8.3984375)"><text><tspan xml:space="preserve" dy="1em" x="1">tag</tspan></text></g></g></g><g class="node" style="opacity: 1;" transform="translate(315.0234375,712.7734375)"><rect rx="5" ry="5" x="-46.9765625" y="-18.3984375" width="93.953125" height="36.796875" style="stroke: #333;fill: #b9e1ff"/><g class="label" transform="translate(0,0)"><g transform="translate(-36.9765625,-8.3984375)"><text><tspan xml:space="preserve" dy="1em" x="1">$tag&amp;rotate</tspan></text></g></g></g><g class="node layer" transform="translate(169.5234375,452.3828125)" style="opacity: 1;"><rect rx="5" ry="5" x="-34.8984375" y="-18.3984375" width="69.796875" height="36.796875" style="stroke: #333;fill: #ccccff"/><g class="label" transform="translate(0,0)"><g transform="translate(-24.8984375,-8.3984375)"><text><tspan xml:space="preserve" dy="1em" x="1">multiply</tspan></text></g></g></g><g class="node" style="opacity: 1;" transform="translate(169.5234375,539.1796875)"><rect rx="5" ry="5" x="-43.828125" y="-18.3984375" width="87.65625" height="36.796875" style="stroke: #333;fill: #b9e1ff"/><g class="label" transform="translate(0,0)"><g transform="translate(-33.828125,-8.3984375)"><text><tspan xml:space="preserve" dy="1em" x="1">$sample*3</tspan></text></g></g></g><g class="node layer" transform="translate(169.5234375,625.9765625)" style="opacity: 1;"><rect rx="5" ry="5" x="-23.953125" y="-18.3984375" width="47.90625" height="36.796875" style="stroke: #333;fill: #ccccff"/><g class="label" transform="translate(0,0)"><g transform="translate(-13.953125,-8.3984375)"><text><tspan xml:space="preserve" dy="1em" x="1">crop</tspan></text></g></g></g><g class="node" style="opacity: 1;" transform="translate(169.5234375,712.7734375)"><rect rx="5" ry="5" x="-48.5234375" y="-18.3984375" width="97.046875" height="36.796875" style="stroke: #333;fill: #b9e1ff"/><g class="label" transform="translate(0,0)"><g transform="translate(-38.5234375,-8.3984375)"><text><tspan xml:space="preserve" dy="1em" x="1">$crops_map</tspan></text></g></g></g><g class="node layer" transform="translate(390.0390625,799.5703125)" style="opacity: 1;"><rect rx="5" ry="5" x="-24.7109375" y="-18.3984375" width="49.421875" height="36.796875" style="stroke: #333;fill: #ccccff"/><g class="label" transform="translate(0,0)"><g transform="translate(-14.7109375,-8.3984375)"><text><tspan xml:space="preserve" dy="1em" x="1">save</tspan></text></g></g></g><g class="node" style="opacity: 1;" transform="translate(390.0390625,886.3671875)"><rect rx="5" ry="5" x="-82.84375" y="-18.3984375" width="165.6875" height="36.796875" style="stroke: #333;fill: #b9e1ff"/><g class="label" transform="translate(0,0)"><g transform="translate(-72.84375,-8.3984375)"><text><tspan xml:space="preserve" dy="1em" x="1">Monobot_dataset(final)</tspan></text></g></g></g></g></g></g></svg>