<svg xmlns="http://www.w3.org/2000/svg" width="700" class="diagram"><g transform="translate(88.77734375,20) scale(0.75)"><g class="output"><g class="clusters"/><g class="edgePaths"><g class="edgePath" style="opacity: 1;"><path class="path" d="M177.79296875,36.796875L177.79296875,61.796875L177.79296875,86.796875" marker-end="url(https://app.supervise.ly/export/run#arrowhead227)" style="stroke: #333; fill:rgba(255,255,255,0); stroke-width: 1.5px;"/><defs><marker id="arrowhead227" viewBox="0 0 10 10" refX="9" refY="5" markerUnits="strokeWidth" markerWidth="8" markerHeight="6" orient="auto"><path d="M 0 0 L 10 5 L 0 10 z" style="stroke-width: 1; stroke-dasharray: 1, 0;"/></marker></defs></g><g class="edgePath" style="opacity: 1;"><path class="path" d="M177.79296875,123.59375L177.79296875,148.59375L177.79296875,173.59375" marker-end="url(https://app.supervise.ly/export/run#arrowhead228)" style="stroke: #333; fill:rgba(255,255,255,0); stroke-width: 1.5px;"/><defs><marker id="arrowhead228" viewBox="0 0 10 10" refX="9" refY="5" markerUnits="strokeWidth" markerWidth="8" markerHeight="6" orient="auto"><path d="M 0 0 L 10 5 L 0 10 z" style="stroke-width: 1; stroke-dasharray: 1, 0;"/></marker></defs></g><g class="edgePath" style="opacity: 1;"><path class="path" d="M177.79296875,210.390625L177.79296875,235.390625L177.79296875,260.390625" marker-end="url(https://app.supervise.ly/export/run#arrowhead229)" style="stroke: #333; fill:rgba(255,255,255,0); stroke-width: 1.5px;"/><defs><marker id="arrowhead229" viewBox="0 0 10 10" refX="9" refY="5" markerUnits="strokeWidth" markerWidth="8" markerHeight="6" orient="auto"><path d="M 0 0 L 10 5 L 0 10 z" style="stroke-width: 1; stroke-dasharray: 1, 0;"/></marker></defs></g><g class="edgePath" style="opacity: 1;"><path class="path" d="M192.28515625,282.91885456209764L330.0859375,322.1875L330.0859375,347.1875" marker-end="url(https://app.supervise.ly/export/run#arrowhead230)" style="stroke: #333; fill:rgba(255,255,255,0); stroke-width: 1.5px;"/><defs><marker id="arrowhead230" viewBox="0 0 10 10" refX="9" refY="5" markerUnits="strokeWidth" markerWidth="8" markerHeight="6" orient="auto"><path d="M 0 0 L 10 5 L 0 10 z" style="stroke-width: 1; stroke-dasharray: 1, 0;"/></marker></defs></g><g class="edgePath" style="opacity: 1;"><path class="path" d="M163.30078125,282.91885456209764L25.5,322.1875L25.5,365.5859375L25.5,408.984375L25.5,452.3828125L25.5,495.78125L25.5,539.1796875L25.5,582.578125L25.5,625.9765625L25.5,669.375L25.5,694.375" marker-end="url(https://app.supervise.ly/export/run#arrowhead231)" style="stroke: #333; fill:rgba(255,255,255,0); stroke-width: 1.5px;"/><defs><marker id="arrowhead231" viewBox="0 0 10 10" refX="9" refY="5" markerUnits="strokeWidth" markerWidth="8" markerHeight="6" orient="auto"><path d="M 0 0 L 10 5 L 0 10 z" style="stroke-width: 1; stroke-dasharray: 1, 0;"/></marker></defs></g><g class="edgePath" style="opacity: 1;"><path class="path" d="M355.5390625,371.76890537541544L508.7421875,408.984375L508.7421875,433.984375" marker-end="url(https://app.supervise.ly/export/run#arrowhead232)" style="stroke: #333; fill:rgba(255,255,255,0); stroke-width: 1.5px;"/><defs><marker id="arrowhead232" viewBox="0 0 10 10" refX="9" refY="5" markerUnits="strokeWidth" markerWidth="8" markerHeight="6" orient="auto"><path d="M 0 0 L 10 5 L 0 10 z" style="stroke-width: 1; stroke-dasharray: 1, 0;"/></marker></defs></g><g class="edgePath" style="opacity: 1;"><path class="path" d="M508.7421875,470.78125L508.7421875,495.78125L508.7421875,520.78125" marker-end="url(https://app.supervise.ly/export/run#arrowhead233)" style="stroke: #333; fill:rgba(255,255,255,0); stroke-width: 1.5px;"/><defs><marker id="arrowhead233" viewBox="0 0 10 10" refX="9" refY="5" markerUnits="strokeWidth" markerWidth="8" markerHeight="6" orient="auto"><path d="M 0 0 L 10 5 L 0 10 z" style="stroke-width: 1; stroke-dasharray: 1, 0;"/></marker></defs></g><g class="edgePath" style="opacity: 1;"><path class="path" d="M508.7421875,557.578125L508.7421875,582.578125L508.7421875,607.578125" marker-end="url(https://app.supervise.ly/export/run#arrowhead234)" style="stroke: #333; fill:rgba(255,255,255,0); stroke-width: 1.5px;"/><defs><marker id="arrowhead234" viewBox="0 0 10 10" refX="9" refY="5" markerUnits="strokeWidth" markerWidth="8" markerHeight="6" orient="auto"><path d="M 0 0 L 10 5 L 0 10 z" style="stroke-width: 1; stroke-dasharray: 1, 0;"/></marker></defs></g><g class="edgePath" style="opacity: 1;"><path class="path" d="M508.7421875,644.375L508.7421875,669.375L508.7421875,694.375" marker-end="url(https://app.supervise.ly/export/run#arrowhead235)" style="stroke: #333; fill:rgba(255,255,255,0); stroke-width: 1.5px;"/><defs><marker id="arrowhead235" viewBox="0 0 10 10" refX="9" refY="5" markerUnits="strokeWidth" markerWidth="8" markerHeight="6" orient="auto"><path d="M 0 0 L 10 5 L 0 10 z" style="stroke-width: 1; stroke-dasharray: 1, 0;"/></marker></defs></g><g class="edgePath" style="opacity: 1;"><path class="path" d="M304.6328125,372.66545429225914L174.0546875,408.984375L174.0546875,433.984375" marker-end="url(https://app.supervise.ly/export/run#arrowhead236)" style="stroke: #333; fill:rgba(255,255,255,0); stroke-width: 1.5px;"/><defs><marker id="arrowhead236" viewBox="0 0 10 10" refX="9" refY="5" markerUnits="strokeWidth" markerWidth="8" markerHeight="6" orient="auto"><path d="M 0 0 L 10 5 L 0 10 z" style="stroke-width: 1; stroke-dasharray: 1, 0;"/></marker></defs></g><g class="edgePath" style="opacity: 1;"><path class="path" d="M174.0546875,470.78125L174.0546875,495.78125L174.0546875,520.78125" marker-end="url(https://app.supervise.ly/export/run#arrowhead237)" style="stroke: #333; fill:rgba(255,255,255,0); stroke-width: 1.5px;"/><defs><marker id="arrowhead237" viewBox="0 0 10 10" refX="9" refY="5" markerUnits="strokeWidth" markerWidth="8" markerHeight="6" orient="auto"><path d="M 0 0 L 10 5 L 0 10 z" style="stroke-width: 1; stroke-dasharray: 1, 0;"/></marker></defs></g><g class="edgePath" style="opacity: 1;"><path class="path" d="M174.0546875,557.578125L174.0546875,582.578125L174.0546875,607.578125" marker-end="url(https://app.supervise.ly/export/run#arrowhead238)" style="stroke: #333; fill:rgba(255,255,255,0); stroke-width: 1.5px;"/><defs><marker id="arrowhead238" viewBox="0 0 10 10" refX="9" refY="5" markerUnits="strokeWidth" markerWidth="8" markerHeight="6" orient="auto"><path d="M 0 0 L 10 5 L 0 10 z" style="stroke-width: 1; stroke-dasharray: 1, 0;"/></marker></defs></g><g class="edgePath" style="opacity: 1;"><path class="path" d="M174.0546875,644.375L174.0546875,669.375L174.0546875,694.375" marker-end="url(https://app.supervise.ly/export/run#arrowhead239)" style="stroke: #333; fill:rgba(255,255,255,0); stroke-width: 1.5px;"/><defs><marker id="arrowhead239" viewBox="0 0 10 10" refX="9" refY="5" markerUnits="strokeWidth" markerWidth="8" markerHeight="6" orient="auto"><path d="M 0 0 L 10 5 L 0 10 z" style="stroke-width: 1; stroke-dasharray: 1, 0;"/></marker></defs></g><g class="edgePath" style="opacity: 1;"><path class="path" d="M330.0859375,383.984375L330.0859375,408.984375L330.0859375,433.984375" marker-end="url(https://app.supervise.ly/export/run#arrowhead240)" style="stroke: #333; fill:rgba(255,255,255,0); stroke-width: 1.5px;"/><defs><marker id="arrowhead240" viewBox="0 0 10 10" refX="9" refY="5" markerUnits="strokeWidth" markerWidth="8" markerHeight="6" orient="auto"><path d="M 0 0 L 10 5 L 0 10 z" style="stroke-width: 1; stroke-dasharray: 1, 0;"/></marker></defs></g><g class="edgePath" style="opacity: 1;"><path class="path" d="M330.0859375,470.78125L330.0859375,495.78125L330.0859375,520.78125" marker-end="url(https://app.supervise.ly/export/run#arrowhead241)" style="stroke: #333; fill:rgba(255,255,255,0); stroke-width: 1.5px;"/><defs><marker id="arrowhead241" viewBox="0 0 10 10" refX="9" refY="5" markerUnits="strokeWidth" markerWidth="8" markerHeight="6" orient="auto"><path d="M 0 0 L 10 5 L 0 10 z" style="stroke-width: 1; stroke-dasharray: 1, 0;"/></marker></defs></g><g class="edgePath" style="opacity: 1;"><path class="path" d="M330.0859375,557.578125L330.0859375,582.578125L330.0859375,607.578125" marker-end="url(https://app.supervise.ly/export/run#arrowhead242)" style="stroke: #333; fill:rgba(255,255,255,0); stroke-width: 1.5px;"/><defs><marker id="arrowhead242" viewBox="0 0 10 10" refX="9" refY="5" markerUnits="strokeWidth" markerWidth="8" markerHeight="6" orient="auto"><path d="M 0 0 L 10 5 L 0 10 z" style="stroke-width: 1; stroke-dasharray: 1, 0;"/></marker></defs></g><g class="edgePath" style="opacity: 1;"><path class="path" d="M330.0859375,644.375L330.0859375,669.375L330.0859375,694.375" marker-end="url(https://app.supervise.ly/export/run#arrowhead243)" style="stroke: #333; fill:rgba(255,255,255,0); stroke-width: 1.5px;"/><defs><marker id="arrowhead243" viewBox="0 0 10 10" refX="9" refY="5" markerUnits="strokeWidth" markerWidth="8" markerHeight="6" orient="auto"><path d="M 0 0 L 10 5 L 0 10 z" style="stroke-width: 1; stroke-dasharray: 1, 0;"/></marker></defs></g><g class="edgePath" style="opacity: 1;"><path class="path" d="M355.5390625,368.87918083570133L665.5078125,408.984375L665.5078125,452.3828125L665.5078125,495.78125L665.5078125,539.1796875L665.5078125,582.578125L665.5078125,607.578125" marker-end="url(https://app.supervise.ly/export/run#arrowhead244)" style="stroke: #333; fill:rgba(255,255,255,0); stroke-width: 1.5px;"/><defs><marker id="arrowhead244" viewBox="0 0 10 10" refX="9" refY="5" markerUnits="strokeWidth" markerWidth="8" markerHeight="6" orient="auto"><path d="M 0 0 L 10 5 L 0 10 z" style="stroke-width: 1; stroke-dasharray: 1, 0;"/></marker></defs></g><g class="edgePath" style="opacity: 1;"><path class="path" d="M665.5078125,644.375L665.5078125,669.375L665.5078125,694.375" marker-end="url(https://app.supervise.ly/export/run#arrowhead245)" style="stroke: #333; fill:rgba(255,255,255,0); stroke-width: 1.5px;"/><defs><marker id="arrowhead245" viewBox="0 0 10 10" refX="9" refY="5" markerUnits="strokeWidth" markerWidth="8" markerHeight="6" orient="auto"><path d="M 0 0 L 10 5 L 0 10 z" style="stroke-width: 1; stroke-dasharray: 1, 0;"/></marker></defs></g><g class="edgePath" style="opacity: 1;"><path class="path" d="M25.5,731.171875L25.5,756.171875L227.359375,794.837053032654" marker-end="url(https://app.supervise.ly/export/run#arrowhead246)" style="stroke: #333; fill:rgba(255,255,255,0); stroke-width: 1.5px;"/><defs><marker id="arrowhead246" viewBox="0 0 10 10" refX="9" refY="5" markerUnits="strokeWidth" markerWidth="8" markerHeight="6" orient="auto"><path d="M 0 0 L 10 5 L 0 10 z" style="stroke-width: 1; stroke-dasharray: 1, 0;"/></marker></defs></g><g class="edgePath" style="opacity: 1;"><path class="path" d="M304.6328125,370.11149872571457L86,408.984375L86,452.3828125L86,495.78125L86,539.1796875L86,582.578125L86,625.9765625L86,669.375L86,712.7734375L86,756.171875L227.359375,793.1127099308463" marker-end="url(https://app.supervise.ly/export/run#arrowhead247)" style="stroke: #333; fill:rgba(255,255,255,0); stroke-width: 1.5px;"/><defs><marker id="arrowhead247" viewBox="0 0 10 10" refX="9" refY="5" markerUnits="strokeWidth" markerWidth="8" markerHeight="6" orient="auto"><path d="M 0 0 L 10 5 L 0 10 z" style="stroke-width: 1; stroke-dasharray: 1, 0;"/></marker></defs></g><g class="edgePath" style="opacity: 1;"><path class="path" d="M174.0546875,731.171875L174.0546875,756.171875L227.359375,785.8241420801622" marker-end="url(https://app.supervise.ly/export/run#arrowhead248)" style="stroke: #333; fill:rgba(255,255,255,0); stroke-width: 1.5px;"/><defs><marker id="arrowhead248" viewBox="0 0 10 10" refX="9" refY="5" markerUnits="strokeWidth" markerWidth="8" markerHeight="6" orient="auto"><path d="M 0 0 L 10 5 L 0 10 z" style="stroke-width: 1; stroke-dasharray: 1, 0;"/></marker></defs></g><g class="edgePath" style="opacity: 1;"><path class="path" d="M330.0859375,731.171875L330.0859375,756.171875L276.78125,785.8241420801622" marker-end="url(https://app.supervise.ly/export/run#arrowhead249)" style="stroke: #333; fill:rgba(255,255,255,0); stroke-width: 1.5px;"/><defs><marker id="arrowhead249" viewBox="0 0 10 10" refX="9" refY="5" markerUnits="strokeWidth" markerWidth="8" markerHeight="6" orient="auto"><path d="M 0 0 L 10 5 L 0 10 z" style="stroke-width: 1; stroke-dasharray: 1, 0;"/></marker></defs></g><g class="edgePath" style="opacity: 1;"><path class="path" d="M508.7421875,731.171875L508.7421875,756.171875L276.78125,795.3921528295641" marker-end="url(https://app.supervise.ly/export/run#arrowhead250)" style="stroke: #333; fill:rgba(255,255,255,0); stroke-width: 1.5px;"/><defs><marker id="arrowhead250" viewBox="0 0 10 10" refX="9" refY="5" markerUnits="strokeWidth" markerWidth="8" markerHeight="6" orient="auto"><path d="M 0 0 L 10 5 L 0 10 z" style="stroke-width: 1; stroke-dasharray: 1, 0;"/></marker></defs></g><g class="edgePath" style="opacity: 1;"><path class="path" d="M665.5078125,731.171875L665.5078125,756.171875L276.78125,796.9764111807917" marker-end="url(https://app.supervise.ly/export/run#arrowhead251)" style="stroke: #333; fill:rgba(255,255,255,0); stroke-width: 1.5px;"/><defs><marker id="arrowhead251" viewBox="0 0 10 10" refX="9" refY="5" markerUnits="strokeWidth" markerWidth="8" markerHeight="6" orient="auto"><path d="M 0 0 L 10 5 L 0 10 z" style="stroke-width: 1; stroke-dasharray: 1, 0;"/></marker></defs></g><g class="edgePath" style="opacity: 1;"><path class="path" d="M252.0703125,817.96875L252.0703125,842.96875L252.0703125,867.96875" marker-end="url(https://app.supervise.ly/export/run#arrowhead252)" style="stroke: #333; fill:rgba(255,255,255,0); stroke-width: 1.5px;"/><defs><marker id="arrowhead252" viewBox="0 0 10 10" refX="9" refY="5" markerUnits="strokeWidth" markerWidth="8" markerHeight="6" orient="auto"><path d="M 0 0 L 10 5 L 0 10 z" style="stroke-width: 1; stroke-dasharray: 1, 0;"/></marker></defs></g></g><g class="edgeLabels"><g class="edgeLabel" transform="" style="opacity: 1;"><g transform="translate(0,0)" class="label"><text><tspan xml:space="preserve" dy="1em" x="1"/></text></g></g><g class="edgeLabel" transform="" style="opacity: 1;"><g transform="translate(0,0)" class="label"><text><tspan xml:space="preserve" dy="1em" x="1"/></text></g></g><g class="edgeLabel" transform="" style="opacity: 1;"><g transform="translate(0,0)" class="label"><text><tspan xml:space="preserve" dy="1em" x="1"/></text></g></g><g class="edgeLabel" transform="" style="opacity: 1;"><g transform="translate(0,0)" class="label"><text><tspan xml:space="preserve" dy="1em" x="1"/></text></g></g><g class="edgeLabel" transform="" style="opacity: 1;"><g transform="translate(0,0)" class="label"><text><tspan xml:space="preserve" dy="1em" x="1"/></text></g></g><g class="edgeLabel" transform="" style="opacity: 1;"><g transform="translate(0,0)" class="label"><text><tspan xml:space="preserve" dy="1em" x="1"/></text></g></g><g class="edgeLabel" transform="" style="opacity: 1;"><g transform="translate(0,0)" class="label"><text><tspan xml:space="preserve" dy="1em" x="1"/></text></g></g><g class="edgeLabel" transform="" style="opacity: 1;"><g transform="translate(0,0)" class="label"><text><tspan xml:space="preserve" dy="1em" x="1"/></text></g></g><g class="edgeLabel" transform="" style="opacity: 1;"><g transform="translate(0,0)" class="label"><text><tspan xml:space="preserve" dy="1em" x="1"/></text></g></g><g class="edgeLabel" transform="" style="opacity: 1;"><g transform="translate(0,0)" class="label"><text><tspan xml:space="preserve" dy="1em" x="1"/></text></g></g><g class="edgeLabel" transform="" style="opacity: 1;"><g transform="translate(0,0)" class="label"><text><tspan xml:space="preserve" dy="1em" x="1"/></text></g></g><g class="edgeLabel" transform="" style="opacity: 1;"><g transform="translate(0,0)" class="label"><text><tspan xml:space="preserve" dy="1em" x="1"/></text></g></g><g class="edgeLabel" transform="" style="opacity: 1;"><g transform="translate(0,0)" class="label"><text><tspan xml:space="preserve" dy="1em" x="1"/></text></g></g><g class="edgeLabel" transform="" style="opacity: 1;"><g transform="translate(0,0)" class="label"><text><tspan xml:space="preserve" dy="1em" x="1"/></text></g></g><g class="edgeLabel" transform="" style="opacity: 1;"><g transform="translate(0,0)" class="label"><text><tspan xml:space="preserve" dy="1em" x="1"/></text></g></g><g class="edgeLabel" transform="" style="opacity: 1;"><g transform="translate(0,0)" class="label"><text><tspan xml:space="preserve" dy="1em" x="1"/></text></g></g><g class="edgeLabel" transform="" style="opacity: 1;"><g transform="translate(0,0)" class="label"><text><tspan xml:space="preserve" dy="1em" x="1"/></text></g></g><g class="edgeLabel" transform="" style="opacity: 1;"><g transform="translate(0,0)" class="label"><text><tspan xml:space="preserve" dy="1em" x="1"/></text></g></g><g class="edgeLabel" transform="" style="opacity: 1;"><g transform="translate(0,0)" class="label"><text><tspan xml:space="preserve" dy="1em" x="1"/></text></g></g><g class="edgeLabel" transform="" style="opacity: 1;"><g transform="translate(0,0)" class="label"><text><tspan xml:space="preserve" dy="1em" x="1"/></text></g></g><g class="edgeLabel" transform="" style="opacity: 1;"><g transform="translate(0,0)" class="label"><text><tspan xml:space="preserve" dy="1em" x="1"/></text></g></g><g class="edgeLabel" transform="" style="opacity: 1;"><g transform="translate(0,0)" class="label"><text><tspan xml:space="preserve" dy="1em" x="1"/></text></g></g><g class="edgeLabel" transform="" style="opacity: 1;"><g transform="translate(0,0)" class="label"><text><tspan xml:space="preserve" dy="1em" x="1"/></text></g></g><g class="edgeLabel" transform="" style="opacity: 1;"><g transform="translate(0,0)" class="label"><text><tspan xml:space="preserve" dy="1em" x="1"/></text></g></g><g class="edgeLabel" transform="" style="opacity: 1;"><g transform="translate(0,0)" class="label"><text><tspan xml:space="preserve" dy="1em" x="1"/></text></g></g><g class="edgeLabel" transform="" style="opacity: 1;"><g transform="translate(0,0)" class="label"><text><tspan xml:space="preserve" dy="1em" x="1"/></text></g></g></g><g class="nodes"><g class="node layer" transform="translate(177.79296875,105.1953125)" style="opacity: 1;"><rect rx="5" ry="5" x="-24.0390625" y="-18.3984375" width="48.078125" height="36.796875" style="stroke: #333;fill: #ccccff"/><g class="label" transform="translate(0,0)"><g transform="translate(-14.0390625,-8.3984375)"><text><tspan xml:space="preserve" dy="1em" x="1">data</tspan></text></g></g></g><g class="node" transform="translate(177.79296875,18.3984375)" style="opacity: 1;"><rect rx="5" ry="5" x="-44.2421875" y="-18.3984375" width="88.484375" height="36.796875" style="stroke: #333;fill: #b9e1ff"/><g class="label" transform="translate(0,0)"><g transform="translate(-34.2421875,-8.3984375)"><text><tspan xml:space="preserve" dy="1em" x="1">Monobot/*</tspan></text></g></g></g><g class="node" transform="translate(177.79296875,191.9921875)" style="opacity: 1;"><rect rx="5" ry="5" x="-27.96875" y="-18.3984375" width="55.9375" height="36.796875" style="stroke: #333;fill: #b9e1ff"/><g class="label" transform="translate(0,0)"><g transform="translate(-17.96875,-8.3984375)"><text><tspan xml:space="preserve" dy="1em" x="1">$data</tspan></text></g></g></g><g class="node layer" transform="translate(177.79296875,278.7890625)" style="opacity: 1;"><rect rx="5" ry="5" x="-14.4921875" y="-18.3984375" width="28.984375" height="36.796875" style="stroke: #333;fill: #ccccff"/><g class="label" transform="translate(0,0)"><g transform="translate(-4.4921875,-8.3984375)"><text><tspan xml:space="preserve" dy="1em" x="1">if</tspan></text></g></g></g><g class="node" style="opacity: 1;" transform="translate(330.0859375,365.5859375)"><rect rx="5" ry="5" x="-25.453125" y="-18.3984375" width="50.90625" height="36.796875" style="stroke: #333;fill: #b9e1ff"/><g class="label" transform="translate(0,0)"><g transform="translate(-15.453125,-8.3984375)"><text><tspan xml:space="preserve" dy="1em" x="1">$pos</tspan></text></g></g></g><g class="node" transform="translate(25.5,712.7734375)" style="opacity: 1;"><rect rx="5" ry="5" x="-25.5" y="-18.3984375" width="51" height="36.796875" style="stroke: #333;fill: #b9e1ff"/><g class="label" transform="translate(0,0)"><g transform="translate(-15.5,-8.3984375)"><text><tspan xml:space="preserve" dy="1em" x="1">$neg</tspan></text></g></g></g><g class="node layer" transform="translate(508.7421875,452.3828125)" style="opacity: 1;"><rect rx="5" ry="5" x="-34.8984375" y="-18.3984375" width="69.796875" height="36.796875" style="stroke: #333;fill: #ccccff"/><g class="label" transform="translate(0,0)"><g transform="translate(-24.8984375,-8.3984375)"><text><tspan xml:space="preserve" dy="1em" x="1">multiply</tspan></text></g></g></g><g class="node" style="opacity: 1;" transform="translate(508.7421875,539.1796875)"><rect rx="5" ry="5" x="-43.828125" y="-18.3984375" width="87.65625" height="36.796875" style="stroke: #333;fill: #b9e1ff"/><g class="label" transform="translate(0,0)"><g transform="translate(-33.828125,-8.3984375)"><text><tspan xml:space="preserve" dy="1em" x="1">$sample*2</tspan></text></g></g></g><g class="node layer" transform="translate(508.7421875,625.9765625)" style="opacity: 1;"><rect rx="5" ry="5" x="-71.75" y="-18.3984375" width="143.5" height="36.796875" style="stroke: #333;fill: #ccccff"/><g class="label" transform="translate(0,0)"><g transform="translate(-61.75,-8.3984375)"><text><tspan xml:space="preserve" dy="1em" x="1">contrast_brightness</tspan></text></g></g></g><g class="node" style="opacity: 1;" transform="translate(508.7421875,712.7734375)"><rect rx="5" ry="5" x="-75.6796875" y="-18.3984375" width="151.359375" height="36.796875" style="stroke: #333;fill: #b9e1ff"/><g class="label" transform="translate(0,0)"><g transform="translate(-65.6796875,-8.3984375)"><text><tspan xml:space="preserve" dy="1em" x="1">$contrast_brightness</tspan></text></g></g></g><g class="node layer" transform="translate(174.0546875,452.3828125)" style="opacity: 1;"><rect rx="5" ry="5" x="-19.671875" y="-18.3984375" width="39.34375" height="36.796875" style="stroke: #333;fill: #ccccff"/><g class="label" transform="translate(0,0)"><g transform="translate(-9.671875,-8.3984375)"><text><tspan xml:space="preserve" dy="1em" x="1">flip</tspan></text></g></g></g><g class="node" style="opacity: 1;" transform="translate(174.0546875,539.1796875)"><rect rx="5" ry="5" x="-38.6796875" y="-18.3984375" width="77.359375" height="36.796875" style="stroke: #333;fill: #b9e1ff"/><g class="label" transform="translate(0,0)"><g transform="translate(-28.6796875,-8.3984375)"><text><tspan xml:space="preserve" dy="1em" x="1">$flip_vert</tspan></text></g></g></g><g class="node layer" transform="translate(174.0546875,625.9765625)" style="opacity: 1;"><rect rx="5" ry="5" x="-20.4921875" y="-18.3984375" width="40.984375" height="36.796875" style="stroke: #333;fill: #ccccff"/><g class="label" transform="translate(0,0)"><g transform="translate(-10.4921875,-8.3984375)"><text><tspan xml:space="preserve" dy="1em" x="1">tag</tspan></text></g></g></g><g class="node" style="opacity: 1;" transform="translate(174.0546875,712.7734375)"><rect rx="5" ry="5" x="-53.0546875" y="-18.3984375" width="106.109375" height="36.796875" style="stroke: #333;fill: #b9e1ff"/><g class="label" transform="translate(0,0)"><g transform="translate(-43.0546875,-8.3984375)"><text><tspan xml:space="preserve" dy="1em" x="1">$tag&amp;flip_vert</tspan></text></g></g></g><g class="node layer" transform="translate(330.0859375,452.3828125)" style="opacity: 1;"><rect rx="5" ry="5" x="-19.671875" y="-18.3984375" width="39.34375" height="36.796875" style="stroke: #333;fill: #ccccff"/><g class="label" transform="translate(0,0)"><g transform="translate(-9.671875,-8.3984375)"><text><tspan xml:space="preserve" dy="1em" x="1">flip</tspan></text></g></g></g><g class="node" style="opacity: 1;" transform="translate(330.0859375,539.1796875)"><rect rx="5" ry="5" x="-38.6015625" y="-18.3984375" width="77.203125" height="36.796875" style="stroke: #333;fill: #b9e1ff"/><g class="label" transform="translate(0,0)"><g transform="translate(-28.6015625,-8.3984375)"><text><tspan xml:space="preserve" dy="1em" x="1">$flip_hori</tspan></text></g></g></g><g class="node layer" transform="translate(330.0859375,625.9765625)" style="opacity: 1;"><rect rx="5" ry="5" x="-20.4921875" y="-18.3984375" width="40.984375" height="36.796875" style="stroke: #333;fill: #ccccff"/><g class="label" transform="translate(0,0)"><g transform="translate(-10.4921875,-8.3984375)"><text><tspan xml:space="preserve" dy="1em" x="1">tag</tspan></text></g></g></g><g class="node" style="opacity: 1;" transform="translate(330.0859375,712.7734375)"><rect rx="5" ry="5" x="-52.9765625" y="-18.3984375" width="105.953125" height="36.796875" style="stroke: #333;fill: #b9e1ff"/><g class="label" transform="translate(0,0)"><g transform="translate(-42.9765625,-8.3984375)"><text><tspan xml:space="preserve" dy="1em" x="1">$tag&amp;flip_hori</tspan></text></g></g></g><g class="node layer" transform="translate(665.5078125,625.9765625)" style="opacity: 1;"><rect rx="5" ry="5" x="-27.15625" y="-18.3984375" width="54.3125" height="36.796875" style="stroke: #333;fill: #ccccff"/><g class="label" transform="translate(0,0)"><g transform="translate(-17.15625,-8.3984375)"><text><tspan xml:space="preserve" dy="1em" x="1">noise</tspan></text></g></g></g><g class="node" style="opacity: 1;" transform="translate(665.5078125,712.7734375)"><rect rx="5" ry="5" x="-31.0859375" y="-18.3984375" width="62.171875" height="36.796875" style="stroke: #333;fill: #b9e1ff"/><g class="label" transform="translate(0,0)"><g transform="translate(-21.0859375,-8.3984375)"><text><tspan xml:space="preserve" dy="1em" x="1">$noise</tspan></text></g></g></g><g class="node layer" transform="translate(252.0703125,799.5703125)" style="opacity: 1;"><rect rx="5" ry="5" x="-24.7109375" y="-18.3984375" width="49.421875" height="36.796875" style="stroke: #333;fill: #ccccff"/><g class="label" transform="translate(0,0)"><g transform="translate(-14.7109375,-8.3984375)"><text><tspan xml:space="preserve" dy="1em" x="1">save</tspan></text></g></g></g><g class="node" style="opacity: 1;" transform="translate(252.0703125,886.3671875)"><rect rx="5" ry="5" x="-82.84375" y="-18.3984375" width="165.6875" height="36.796875" style="stroke: #333;fill: #b9e1ff"/><g class="label" transform="translate(0,0)"><g transform="translate(-72.84375,-8.3984375)"><text><tspan xml:space="preserve" dy="1em" x="1">Monobot_dataset(final)</tspan></text></g></g></g></g></g></g></svg>